<svg xmlns="http://www.w3.org/2000/svg" width="33" height="33" viewBox="0 0 33 33">
   <g id="Group_2284" data-name="Group 2284" transform="translate(-154 -4901)">
      <g id="Ellipse_46" data-name="Ellipse 46" transform="translate(154 4901)" fill="none"
      stroke="#085196" stroke-width="1">
      <circle cx="16.5" cy="16.5" r="16.5" stroke="none" />
      <circle cx="16.5" cy="16.5" r="16" fill="none" />
      </g>
   </g>
   <path id="Path_13253" data-name="Path 13253"
      d="M16.425,4H3.6A1.6,1.6,0,0,0,2.008,5.6L2,15.22a1.608,1.608,0,0,0,1.6,1.6H16.425a1.608,1.608,0,0,0,1.6-1.6V5.6A1.608,1.608,0,0,0,16.425,4ZM16.1,7.406l-5.666,3.542a.81.81,0,0,1-.85,0L3.923,7.406a.68.68,0,1,1,.721-1.154L10.014,9.61l5.369-3.358A.68.68,0,1,1,16.1,7.406Z"
      transform="translate(6.5 6.5)" fill="none" stroke="#085196" stroke-width="1" />
</svg>