<svg xmlns="http://www.w3.org/2000/svg" width="79.023" height="72.85" viewBox="0 0 79.023 72.85">
  <g id="XMLID_996_" transform="translate(0 -20)">
    <g id="XMLID_41_" transform="translate(0 20)">
      <path id="XMLID_4218_" d="M310.3,128.832a1.543,1.543,0,0,0,2.183-2.183l-.021-.021a1.544,1.544,0,0,0-2.183,2.183Z" transform="translate(-262.004 -109.789)" fill="#fff"/>
      <path id="XMLID_4221_" d="M73.192,53.647l5.38-5.38a1.543,1.543,0,0,0-1.092-2.635H66.328A33.648,33.648,0,1,0,9.855,77.438a33.888,33.888,0,0,0,6.185,4.893l-4.65,8.215a1.544,1.544,0,0,0,1.343,2.3h7.949a1.543,1.543,0,0,0,1.343-.783l3.288-5.809a34.053,34.053,0,0,0,16.667,0l3.288,5.809a1.543,1.543,0,0,0,1.343.783H54.56a1.543,1.543,0,0,0,1.343-2.3l-4.65-8.215a33.894,33.894,0,0,0,6.185-4.893,33.532,33.532,0,0,0,8.89-15.777H77.48a1.543,1.543,0,0,0,1.092-2.635ZM70.369,52.1H59.6l3.384-3.384H73.754ZM19.782,89.763h-4.4l3.359-5.935a33.185,33.185,0,0,0,3.548,1.509Zm32.131,0h-4.4l-2.505-4.426a33.185,33.185,0,0,0,3.548-1.509Zm3.343-14.507a30.7,30.7,0,0,1-6.767,5.118c-.03.015-.061.029-.091.045s-.036.023-.054.034a30.161,30.161,0,0,1-5.918,2.478,1.528,1.528,0,0,0-.24.069,30.86,30.86,0,0,1-17.08,0,1.53,1.53,0,0,0-.24-.069,30.158,30.158,0,0,1-5.917-2.478c-.018-.011-.035-.023-.054-.034s-.06-.031-.09-.045a30.693,30.693,0,0,1-6.767-5.118,30.56,30.56,0,1,1,51.1-29.623h-.8a1.544,1.544,0,0,0-1.091.452l-4.1,4.1a23.78,23.78,0,0,0-2.69-8.016,1.543,1.543,0,0,0-2.7,1.492A20.5,20.5,0,0,1,54.256,52.1H47.45a13.9,13.9,0,1,0,0,3.087h6.8A20.661,20.661,0,1,1,43.637,35.531a1.543,1.543,0,0,0,1.492-2.7A23.94,23.94,0,0,0,30.471,30.09a23.769,23.769,0,1,0,26.69,27.028l4.091,4.091a1.544,1.544,0,0,0,1.091.452h.8A30.46,30.46,0,0,1,55.256,75.256ZM38.687,50.736a1.543,1.543,0,0,0-2.108-.565l-3.7,2.139a1.543,1.543,0,0,0,0,2.673l3.7,2.139a1.542,1.542,0,0,0,2.194-1.932h5.567a10.721,10.721,0,0,1-3.054,6.1h0A10.8,10.8,0,1,1,44.341,52.1H38.773A1.539,1.539,0,0,0,38.687,50.736Zm24.295,7.838L59.6,55.19H70.369l3.384,3.384Z" transform="translate(0 -20)" fill="#fff"/>
    </g>
  </g>
</svg>
