<svg xmlns="http://www.w3.org/2000/svg" width="60" height="60" viewBox="0 0 88.549 81.631">
   <g id="XMLID_996_" transform="translate(0 -20)">
      <g id="XMLID_41_" transform="translate(0 20)">
      <path id="XMLID_4218_"
         d="M310.352,129.152a1.73,1.73,0,1,0,2.446-2.446l-.023-.023a1.73,1.73,0,1,0-2.446,2.446Z"
         transform="translate(-256.239 -107.813)" fill="#085196" />
      <path id="XMLID_4221_"
         d="M82.015,57.7l6.028-6.028a1.73,1.73,0,0,0-1.223-2.952h-12.5a37.7,37.7,0,1,0-63.281,35.64,37.973,37.973,0,0,0,6.931,5.482l-5.21,9.205a1.73,1.73,0,0,0,1.5,2.581h8.907a1.73,1.73,0,0,0,1.505-.878l3.684-6.509a38.158,38.158,0,0,0,18.677,0l3.684,6.509a1.73,1.73,0,0,0,1.505.878h8.907a1.729,1.729,0,0,0,1.505-2.581l-5.21-9.205a37.981,37.981,0,0,0,6.931-5.482,37.575,37.575,0,0,0,9.961-17.679h12.5a1.73,1.73,0,0,0,1.223-2.952Zm-3.162-1.729H66.782l3.792-3.792h12.07Zm-56.686,42.2H17.234L21,91.522a37.184,37.184,0,0,0,3.975,1.691Zm36,0H53.239l-2.807-4.96a37.185,37.185,0,0,0,3.975-1.691Zm3.746-16.256a34.4,34.4,0,0,1-7.583,5.735c-.034.016-.068.032-.1.051s-.04.026-.06.038a33.8,33.8,0,0,1-6.631,2.777,1.712,1.712,0,0,0-.269.078,34.579,34.579,0,0,1-19.139,0,1.717,1.717,0,0,0-.269-.078,33.793,33.793,0,0,1-6.631-2.777c-.02-.013-.039-.026-.06-.038s-.067-.034-.1-.051a34.394,34.394,0,0,1-7.583-5.735A34.244,34.244,0,1,1,70.754,48.722h-.9a1.73,1.73,0,0,0-1.223.507l-4.59,4.59a26.646,26.646,0,0,0-3.015-8.982A1.73,1.73,0,1,0,58,46.509,22.966,22.966,0,0,1,60.8,55.973H53.17a15.57,15.57,0,1,0,0,3.459h7.618A23.152,23.152,0,1,1,48.9,37.4a1.73,1.73,0,0,0,1.672-3.028,26.826,26.826,0,0,0-16.425-3.069A26.635,26.635,0,1,0,64.051,61.593l4.584,4.584a1.73,1.73,0,0,0,1.223.507h.9A34.132,34.132,0,0,1,61.916,81.916ZM43.351,54.441a1.729,1.729,0,0,0-2.362-.633l-4.151,2.4a1.729,1.729,0,0,0,0,3l4.151,2.4a1.728,1.728,0,0,0,2.458-2.165h6.239a12.013,12.013,0,0,1-3.423,6.831h0a12.1,12.1,0,1,1,3.423-10.29H43.447A1.725,1.725,0,0,0,43.351,54.441Zm27.223,8.783-3.792-3.792h12.07l3.792,3.792Z"
         transform="translate(0 -20)" fill="#085196" />
      </g>
   </g>
</svg>