<svg xmlns="http://www.w3.org/2000/svg" width="33" height="33" viewBox="0 0 33 33">
   <g id="Group_2283" data-name="Group 2283" transform="translate(-154 -4948)">
      <path id="Path_13251" data-name="Path 13251"
      d="M5.778,4.569A9.662,9.662,0,0,0,6.131,6.6l-.942.942a11.634,11.634,0,0,1-.6-2.974H5.778M13.515,14a10.007,10.007,0,0,0,2.04.353v1.169a12.105,12.105,0,0,1-2.982-.589L13.515,14M6.531,3H3.785A.787.787,0,0,0,3,3.785a13.339,13.339,0,0,0,13.34,13.34.787.787,0,0,0,.785-.785V13.6a.787.787,0,0,0-.785-.785,8.951,8.951,0,0,1-2.8-.447.659.659,0,0,0-.243-.039.8.8,0,0,0-.557.228l-1.726,1.726A11.887,11.887,0,0,1,5.841,9.113L7.567,7.386a.787.787,0,0,0,.2-.8,8.914,8.914,0,0,1-.447-2.8A.787.787,0,0,0,6.531,3Z"
      transform="translate(160 4954)" fill="#085196" />
      <g id="Group_2282" data-name="Group 2282" transform="translate(0 47)">
      <g id="Ellipse_46" data-name="Ellipse 46" transform="translate(154 4901)" fill="none"
         stroke="#085196" stroke-width="1">
         <circle cx="16.5" cy="16.5" r="16.5" stroke="none" />
         <circle cx="16.5" cy="16.5" r="16" fill="none" />
      </g>
      </g>
   </g>
</svg>