<svg id="eye_3_" data-name="eye (3)" xmlns="http://www.w3.org/2000/svg" width="60" height="60" viewBox="0 0 84.374 84.374">
      <path id="Path_13198" data-name="Path 13198" d="M99.019,144.486l.791-1.291-.791-1.292a47.544,47.544,0,0,0-9.5-10.5,42.837,42.837,0,0,0-56.1-.005,48,48,0,0,0-9.571,10.495l-.808,1.3.808,1.3a48,48,0,0,0,9.571,10.495,42.837,42.837,0,0,0,56.1-.005A47.522,47.522,0,0,0,99.019,144.486ZM86.226,151.3A37.881,37.881,0,0,1,36.7,151.29a46.647,46.647,0,0,1-7.743-8.1,46.65,46.65,0,0,1,7.743-8.1,37.881,37.881,0,0,1,49.526-.006,46.039,46.039,0,0,1,7.685,8.1A46.049,46.049,0,0,1,86.226,151.3Zm0,0" transform="translate(-19.242 -101.008)" fill="#085196"></path>
      <path id="Path_13199" data-name="Path 13199" d="M180.72,165.867a14.853,14.853,0,1,0,14.853,14.853A14.87,14.87,0,0,0,180.72,165.867Zm0,24.763a9.909,9.909,0,1,1,9.909-9.909A9.921,9.921,0,0,1,180.72,190.63Zm0,0" transform="translate(-138.533 -138.533)" fill="#085196"></path>
      <path id="Path_13200" data-name="Path 13200" d="M4.944,4.944h10.32V0H0V15.079H4.944Zm0,0" fill="#085196"></path>
      <path id="Path_13201" data-name="Path 13201" d="M419.375,0V4.944H429.7V15.079h4.944V0Zm0,0" transform="translate(-350.265)" fill="#085196"></path>
      <path id="Path_13202" data-name="Path 13202" d="M4.944,420.5H0v15.079H15.264v-4.944H4.944Zm0,0" transform="translate(0 -351.205)" fill="#085196"></path>
      <path id="Path_13203" data-name="Path 13203" d="M429.7,430.635h-10.32v4.944h15.264V420.5H429.7Zm0,0" transform="translate(-350.265 -351.205)" fill="#085196"></path>
</svg>